<svg xmlns="http://www.w3.org/2000/svg" viewBox="0 0 64 64">
  <circle cx="32" cy="32" r="30" fill="#1a1a2e"/>
  <g transform="translate(14, 12)" fill="none" stroke="#ffffff" stroke-width="3" stroke-linecap="round" stroke-linejoin="round">
    <path d="M18 0 C12 0, 7 4, 6 9 C2 10, 0 14, 0 18 C0 22, 2 25, 5 27 C4 30, 5 33, 7 35 C9 37, 13 38, 16 37"/>
    <path d="M18 0 C24 0, 29 4, 30 9 C34 10, 36 14, 36 18 C36 22, 34 25, 31 27 C32 30, 31 33, 29 35 C27 37, 23 38, 20 37"/>
    <line x1="18" y1="0" x2="18" y2="38"/>
    <path d="M4 18 C8 16, 13 17, 18 18"/>
    <path d="M18 18 C23 17, 28 16, 32 18"/>
    <path d="M6 28 C10 26, 14 27, 18 28"/>
    <path d="M18 28 C22 27, 26 26, 30 28"/>
  </g>
</svg>
